<?xml version="1.0" encoding="iso-8859-1"?>
<!-- Uploaded to: SVG Repo, www.svgrepo.com, Generator: SVG Repo Mixer Tools -->
<svg height="800px" width="800px" version="1.1" id="Layer_1" xmlns="http://www.w3.org/2000/svg" xmlns:xlink="http://www.w3.org/1999/xlink" 
	 viewBox="0 0 512 512" xml:space="preserve">
<g transform="translate(1 1)">
	<g>
		<path style="fill:#FFE100;" d="M390.36,33.133H375c-32.427,0,0,7.68,0,17.067l15.36,180.907v96.427L375,493.933
			c0,9.387,0,17.067-8.533,17.067h23.893c9.387,0,17.067-7.68,17.067-17.067v-166.4v-96.427V50.2
			C407.427,40.813,399.747,33.133,390.36,33.133"/>
		<path style="fill:#FFE100;" d="M366.467,222.573V41.667c0-9.387-6.827-17.067-15.36-17.067h-93.013v-8.533
			c0-5.12-3.413-8.533-7.68-8.533H141.187c-4.267,0-7.68,3.413-7.68,8.533V24.6H40.493c-8.533,0-15.36,7.68-15.36,17.067V485.4
			c0,9.387,6.827,17.067,15.36,17.067h310.613c8.533,0,15.36-7.68,15.36-17.067V319V222.573z"/>
	</g>
	<path style="fill:#FFA800;" d="M366.467,24.6h-15.36c8.533,0,15.36,7.68,15.36,17.067v180.907V319v166.4
		c0,9.387-6.827,17.067-15.36,17.067h15.36c9.387,0,17.067-7.68,17.067-17.067V319v-96.427V41.667
		C383.533,32.28,375.853,24.6,366.467,24.6"/>
	<path style="fill:#FFFFFF;" d="M25.133,485.4V41.667c0-9.387,6.827-17.067,15.36-17.067h-15.36c-9.387,0-17.067,7.68-17.067,17.067
		V485.4c0,9.387,7.68,17.067,17.067,17.067h15.36C31.96,502.467,25.133,494.787,25.133,485.4"/>
	<path style="fill:#FFA800;" d="M255.533,75.8H136.067c-5.12,0-8.533-3.413-8.533-8.533v-51.2c0-5.12,3.413-8.533,8.533-8.533
		h119.467c5.12,0,8.533,3.413,8.533,8.533v51.2C264.067,72.387,260.653,75.8,255.533,75.8"/>
	<path style="fill:#FFE100;" d="M229.933,75.8h-93.867c-5.12,0-8.533-3.413-8.533-8.533v-51.2c0-5.12,3.413-8.533,8.533-8.533
		h93.867c5.12,0,8.533,3.413,8.533,8.533v51.2C238.467,72.387,235.053,75.8,229.933,75.8"/>
	<path style="fill:#FFA800;" d="M349.4,256.707V67.267c0-5.12-3.413-8.533-8.533-8.533h-76.8v8.533c0,5.12-3.413,8.533-8.533,8.533
		H136.067c-5.12,0-8.533-3.413-8.533-8.533v-8.533h-76.8c-5.12,0-8.533,3.413-8.533,8.533V459.8c0,5.12,3.413,8.533,8.533,8.533
		h290.133c5.12,0,8.533-3.413,8.533-8.533V353.133V256.707z"/>
	<path style="fill:#FFE100;" d="M323.8,256.707V67.267c0-5.12-3.413-8.533-8.533-8.533h-51.2v8.533c0,5.12-3.413,8.533-8.533,8.533
		H136.067c-5.12,0-8.533-3.413-8.533-8.533v-8.533h-76.8c-5.12,0-8.533,3.413-8.533,8.533V459.8c0,5.12,3.413,8.533,8.533,8.533
		h264.533c5.12,0,8.533-3.413,8.533-8.533V353.133V256.707z"/>
	<path style="fill:#FFA800;" d="M242.733,431.64l45.227-17.067l-47.787-48.64l-17.067,45.227
		C217.987,423.96,229.933,436.76,242.733,431.64"/>
	<path style="fill:#FF8800;" d="M287.96,413.72l209.067-209.067c7.68-7.68,7.68-21.333,0-29.013l-16.213-16.213
		c-9.387-9.387-24.747-9.387-34.133,0L240.173,365.933L287.96,413.72z"/>
	<path style="fill:#FFA800;" d="M278.573,400.067L487.64,191c7.68-7.68,7.68-21.333,0-29.013l-1.707-2.56
		c-9.387-9.387-24.747-9.387-34.133,0L238.467,365.933L278.573,400.067z"/>
	<polygon style="fill:#FF8800;" points="475.693,226.84 439,263.533 391.213,214.893 427.053,179.053 	"/>
	<path d="M255.533,84.333H136.067c-9.387,0-17.067-7.68-17.067-17.067v-51.2C119,6.68,126.68-1,136.067-1h119.467
		C264.92-1,272.6,6.68,272.6,16.067v51.2C272.6,76.653,264.92,84.333,255.533,84.333z M255.533,67.267V75.8V67.267L255.533,67.267z
		 M136.067,16.067v51.2h119.467v-51.2H136.067z"/>
	<path d="M287.96,422.253c-2.56,0-4.267-0.853-5.973-2.56l-48.64-48.64c-1.707-1.707-2.56-3.413-2.56-5.973
		c0-2.56,0.853-4.267,2.56-5.973L439.853,152.6c11.947-12.8,34.133-12.8,46.08,0l16.213,16.213c11.093,11.093,11.093,29.867,0,40.96
		L293.933,420.547C292.227,421.4,290.52,422.253,287.96,422.253z M252.12,365.933l35.84,35.84l202.24-202.24
		c5.12-5.12,5.12-12.8,0-17.067l-16.213-16.213c-5.973-5.973-16.213-5.973-22.187,0L252.12,365.933z"/>
	<path d="M439,272.067L439,272.067c-2.56,0-4.267-0.853-5.973-2.56l-47.787-48.64c-3.413-3.413-3.413-8.533,0-11.947l35.84-35.84
		c3.413-3.413,8.533-3.413,11.947,0l48.64,48.64c3.413,3.413,3.413,8.533,0,11.947l-35.84,35.84
		C443.267,271.213,441.56,272.067,439,272.067z M403.16,214.893l35.84,35.84l23.893-23.893L427.053,191L403.16,214.893z"/>
	<path d="M236.76,441.027c-5.973,0-11.947-2.56-17.067-6.827c-6.827-6.827-9.387-17.067-5.12-25.6l17.067-45.227
		c0.853-2.56,3.413-4.267,5.973-5.12c2.56-0.853,5.973,0,7.68,2.56l48.64,48.64c1.707,1.707,2.56,5.12,2.56,7.68
		s-2.56,5.12-5.12,5.973l-45.227,17.067C242.733,441.027,240.173,441.027,236.76,441.027z M243.587,381.293l-12.8,33.28
		c-1.707,4.267,0.853,6.827,1.707,7.68c0.853,0.853,3.413,3.413,7.68,1.707l0,0l33.28-12.8L243.587,381.293z"/>
	<path d="M238.467,144.067h-85.333c-5.12,0-8.533-3.413-8.533-8.533s3.413-8.533,8.533-8.533h85.333c5.12,0,8.533,3.413,8.533,8.533
		S243.587,144.067,238.467,144.067z"/>
	<path d="M298.2,195.267H247c-5.12,0-8.533-3.413-8.533-8.533c0-5.12,3.413-8.533,8.533-8.533h51.2c5.12,0,8.533,3.413,8.533,8.533
		C306.733,191.853,303.32,195.267,298.2,195.267z"/>
	<path d="M212.867,195.267H93.4c-5.12,0-8.533-3.413-8.533-8.533c0-5.12,3.413-8.533,8.533-8.533h119.467
		c5.12,0,8.533,3.413,8.533,8.533C221.4,191.853,217.987,195.267,212.867,195.267z"/>
	<path d="M298.2,229.4h-25.6c-5.12,0-8.533-3.413-8.533-8.533c0-5.12,3.413-8.533,8.533-8.533h25.6c5.12,0,8.533,3.413,8.533,8.533
		C306.733,225.987,303.32,229.4,298.2,229.4z"/>
	<path d="M238.467,229.4H170.2c-5.12,0-8.533-3.413-8.533-8.533c0-5.12,3.413-8.533,8.533-8.533h68.267
		c5.12,0,8.533,3.413,8.533,8.533C247,225.987,243.587,229.4,238.467,229.4z"/>
	<path d="M136.067,229.4H93.4c-5.12,0-8.533-3.413-8.533-8.533c0-5.12,3.413-8.533,8.533-8.533h42.667
		c5.12,0,8.533,3.413,8.533,8.533C144.6,225.987,141.187,229.4,136.067,229.4z"/>
	<path d="M298.2,263.533h-68.267c-5.12,0-8.533-3.413-8.533-8.533s3.413-8.533,8.533-8.533H298.2c5.12,0,8.533,3.413,8.533,8.533
		S303.32,263.533,298.2,263.533z"/>
	<path d="M195.8,263.533h-51.2c-5.12,0-8.533-3.413-8.533-8.533s3.413-8.533,8.533-8.533h51.2c5.12,0,8.533,3.413,8.533,8.533
		S200.92,263.533,195.8,263.533z"/>
	<path d="M110.467,263.533H93.4c-5.12,0-8.533-3.413-8.533-8.533s3.413-8.533,8.533-8.533h17.067c5.12,0,8.533,3.413,8.533,8.533
		S115.587,263.533,110.467,263.533z"/>
	<path d="M247,297.667h-51.2c-5.12,0-8.533-3.413-8.533-8.533c0-5.12,3.413-8.533,8.533-8.533H247c5.12,0,8.533,3.413,8.533,8.533
		C255.533,294.253,252.12,297.667,247,297.667z"/>
	<path d="M161.667,297.667H93.4c-5.12,0-8.533-3.413-8.533-8.533c0-5.12,3.413-8.533,8.533-8.533h68.267
		c5.12,0,8.533,3.413,8.533,8.533C170.2,294.253,166.787,297.667,161.667,297.667z"/>
	<path d="M212.867,331.8H144.6c-5.12,0-8.533-3.413-8.533-8.533c0-5.12,3.413-8.533,8.533-8.533h68.267
		c5.12,0,8.533,3.413,8.533,8.533C221.4,328.387,217.987,331.8,212.867,331.8z"/>
	<path d="M110.467,331.8H93.4c-5.12,0-8.533-3.413-8.533-8.533c0-5.12,3.413-8.533,8.533-8.533h17.067
		c5.12,0,8.533,3.413,8.533,8.533C119,328.387,115.587,331.8,110.467,331.8z"/>
	<path d="M187.267,365.933H170.2c-5.12,0-8.533-3.413-8.533-8.533s3.413-8.533,8.533-8.533h17.067c5.12,0,8.533,3.413,8.533,8.533
		S192.387,365.933,187.267,365.933z"/>
	<path d="M136.067,365.933H93.4c-5.12,0-8.533-3.413-8.533-8.533s3.413-8.533,8.533-8.533h42.667c5.12,0,8.533,3.413,8.533,8.533
		S141.187,365.933,136.067,365.933z"/>
	<path d="M340.867,476.867H50.733c-9.387,0-17.067-7.68-17.067-17.067V67.267c0-9.387,7.68-17.067,17.067-17.067h76.8
		c5.12,0,8.533,3.413,8.533,8.533v8.533h119.467v-8.533c0-5.12,3.413-8.533,8.533-8.533h76.8c9.387,0,17.067,7.68,17.067,17.067
		v189.44c0,2.56-0.853,4.267-2.56,5.973L252.12,365.933l35.84,35.84l55.467-55.467c2.56-2.56,5.973-3.413,9.387-1.707
		c3.413,1.707,5.12,4.267,5.12,7.68V459.8C357.933,469.187,350.253,476.867,340.867,476.867z M50.733,67.267V459.8h290.133v-86.187
		l-46.933,46.933c-3.413,3.413-8.533,3.413-11.947,0l-48.64-48.64c-1.707-1.707-2.56-3.413-2.56-5.973s0.853-4.267,2.56-5.973
		l107.52-106.667V67.267H272.6c0,9.387-7.68,17.067-17.067,17.067H136.067c-9.387,0-17.067-7.68-17.067-17.067H50.733z"/>
	<path d="M366.467,511H25.133c-14.507,0-25.6-11.093-25.6-25.6V41.667c0-14.507,11.093-25.6,25.6-25.6H119
		C119,6.68,126.68-1,136.067-1h119.467C264.92-1,272.6,6.68,272.6,16.067h93.867c14.507,0,25.6,11.093,25.6,25.6v180.907
		c0,2.56-0.853,4.267-2.56,5.973L252.12,365.933l35.84,35.84l89.6-89.6c2.56-2.56,5.973-3.413,9.387-1.707
		c3.413,1.707,5.12,4.267,5.12,7.68V485.4C392.067,499.907,380.973,511,366.467,511z M25.133,33.133
		c-5.12,0-8.533,3.413-8.533,8.533V485.4c0,5.12,3.413,8.533,8.533,8.533h341.333c5.12,0,8.533-3.413,8.533-8.533V339.48
		l-81.067,81.067c-3.413,3.413-8.533,3.413-11.947,0l-48.64-48.64c-1.707-1.707-2.56-3.413-2.56-5.973s0.853-4.267,2.56-5.973
		L375,219.16V41.667c0-5.12-3.413-8.533-8.533-8.533h-102.4c-5.12,0-8.533-3.413-8.533-8.533v-8.533H136.067V24.6
		c0,5.12-3.413,8.533-8.533,8.533H25.133z"/>
</g>
</svg>